<?xml version="1.0" encoding="utf-8"?>
<!-- Generator: Adobe Illustrator 23.0.1, SVG Export Plug-In . SVG Version: 6.00 Build 0)  -->
<svg version="1.1" id="Layer_1" xmlns="http://www.w3.org/2000/svg" xmlns:xlink="http://www.w3.org/1999/xlink" x="0px" y="0px"
	 viewBox="0 0 538.4 170.9" style="enable-background:new 0 0 538.4 170.9;" xml:space="preserve">
<style type="text/css">
	.st0{fill:#40404C;}
	.st1{fill:#86E12C;}
</style>
<g>
	<path class="st0" d="M120.2,78.4c-6.3-5.3-9.5-12.2-9.5-20.6v-6.3c0-8.5,3.2-15.3,9.5-20.6S134,23,142.4,23
		c10.1,0,18.6,3.6,25.3,10.8L155,43.2c-3.8-3.8-8-5.7-12.7-5.7c-4.2,0-7.9,1.7-11.1,5.1c-3.2,3.4-4.8,7.4-4.8,12s1.5,8.7,4.4,12
		c3,3.4,6.8,5.1,11.4,5.1s8.9-1.9,12.7-5.7l12.7,9.5c-6.8,7.2-15.2,10.8-25.4,10.8C133.9,86.3,126.5,83.7,120.2,78.4z"/>
</g>
<g>
	<path class="st0" d="M218.6,24.7c3.3,1.4,6.4,3.6,9.3,6.4L218,42.3c-2.9-3.4-6.5-5.1-10.8-5.1s-7.1,0.8-8.6,2.4
		c-1.4,1.6-1.4,3,0,4.3s4.3,2.4,8.6,3.2c6.3,0.6,11.5,2.4,15.5,5.4s6,8.2,6,15.7c0,6-2.4,10.7-7.1,13.9c-4.7,3.3-10.3,4.9-16.5,4.9
		c-6,0-11-0.9-15-2.6s-7.4-4-10.3-6.9l9.8-11.1c2.9,3.4,7.3,5.4,13.4,6c4.9,0,8-0.8,9.4-2.4s1.6-3.2,0.6-4.8c-1-1.6-4.3-2.7-10-3.2
		c-5.2-0.6-9.9-2.2-14.2-4.8s-6.4-7.4-6.4-14.6c0-6.5,2.4-11.5,7.3-15c4.9-3.4,9.9-5.2,15-5.2C210.7,22.6,215.4,23.3,218.6,24.7z"/>
</g>
<g>
	<path class="st0" d="M240.8,54.6c0-9.3,3-16.9,8.9-22.8s13.5-8.9,22.8-8.9s16.7,3,22.2,8.9s8.2,13.5,8.2,22.8V61h-43.7
		c0.4,3.4,1.9,6,4.4,7.9s5.5,2.8,8.9,2.8c5.9,0,11.2-1.7,15.8-5.1l10.1,10.1c-4.7,6.3-13.3,9.5-26,9.5c-9.3,0-16.9-3-22.8-8.9
		C243.7,71.5,240.8,63.9,240.8,54.6z M281.3,40.4c-2.5-1.9-5.5-2.9-8.9-2.9s-6.3,1-8.9,2.9s-3.8,4.5-3.8,7.9H285
		C285.1,44.9,283.9,42.3,281.3,40.4z"/>
</g>
<g>
	<path class="st0" d="M357.1,24.7c3.3,1.4,6.4,3.6,9.3,6.4l-9.9,11.1c-2.9-3.4-6.5-5.1-10.8-5.1s-7.1,0.8-8.6,2.4
		c-1.4,1.6-1.4,3,0,4.3s4.3,2.4,8.6,3.2c6.3,0.6,11.5,2.4,15.5,5.4s6,8.2,6,15.7c0,6-2.4,10.7-7.1,13.9c-4.7,3.3-10.3,4.9-16.5,4.9
		c-6,0-11-0.9-15-2.6s-7.4-4-10.3-6.9l9.8-11.1c2.9,3.4,7.3,5.4,13.4,6c4.9,0,8-0.8,9.4-2.4s1.6-3.2,0.6-4.8c-1-1.6-4.3-2.7-10-3.2
		c-5.2-0.6-9.9-2.2-14.2-4.8c-4.3-2.6-6.4-7.4-6.4-14.6c0-6.5,2.4-11.5,7.3-15c4.9-3.4,9.9-5.2,15-5.2
		C349.2,22.6,353.8,23.3,357.1,24.7z"/>
</g>
<g>
	<path class="st0" d="M388.1,77.7c-6.2-6.2-9.3-13.9-9.3-23c0-9.2,3.1-16.9,9.3-23.1s13.9-9.3,23.1-9.3s16.9,3.1,23.1,9.3
		s9.3,13.9,9.3,23.1s-3.1,16.9-9.3,23.1S420.4,87,411.2,87C402,87,394.3,83.9,388.1,77.7z M411.1,71.6c4.8,0,8.7-1.6,11.7-4.8
		c3-3.2,4.5-7.3,4.5-12.1s-1.5-8.9-4.5-12.1c-3-3.3-6.9-4.9-11.8-4.9c-4.8,0-8.7,1.6-11.7,4.9s-4.5,7.3-4.5,12.1s1.5,8.8,4.5,12.1
		C402.4,70,406.3,71.6,411.1,71.6z"/>
</g>
<g>
	<path class="st0" d="M464.3,78.4c-6.3-5.3-9.5-12.2-9.5-20.6v-6.3c0-8.5,3.2-15.3,9.5-20.6s13.8-7.9,22.2-7.9
		c10.1,0,18.6,3.6,25.3,10.8l-12.7,9.5c-3.8-3.8-8-5.7-12.7-5.7c-4.2,0-7.9,1.7-11.1,5.1c-3.2,3.4-4.8,7.4-4.8,12s1.5,8.7,4.4,12
		c3,3.4,6.8,5.1,11.4,5.1c4.7,0,8.9-1.9,12.7-5.7l12.7,9.5c-6.8,7.2-15.2,10.8-25.3,10.8C478,86.3,470.6,83.7,464.3,78.4z"/>
</g>
<g>
	<g>
		<rect x="49.8" y="76.2" class="st1" width="37.1" height="11"/>
		<polygon class="st1" points="62.8,37.3 26.6,21.7 26.6,35.1 45.5,42.5 26.6,49.9 26.6,63.4 62.8,47.6 		"/>
	</g>
</g>
<path class="st1" d="M265,133.8c-2.3-2.3-3.5-5.2-3.5-8.7c0-3.4,1.2-6.2,3.5-8.5s5.2-3.5,8.6-3.5s6.4,1.1,8.9,3.2l-3.2,3.5
	c-1.6-1.3-3.5-1.9-5.7-1.9s-3.9,0.7-5.2,2s-2,3.1-2,5.2c0,2.2,0.7,4,2,5.3s3.1,2,5.2,2c2.2,0,4-0.6,5.6-1.9l3.2,3.5
	c-2.5,2.2-5.4,3.2-8.9,3.2C270.2,137.3,267.3,136.1,265,133.8z"/>
<path class="st1" d="M297.6,133.8c-2.3-2.3-3.5-5.2-3.5-8.6s1.2-6.3,3.5-8.6s5.2-3.5,8.6-3.5s6.3,1.2,8.6,3.5s3.5,5.2,3.5,8.6
	s-1.2,6.3-3.5,8.6s-5.2,3.5-8.6,3.5C302.8,137.3,299.9,136.1,297.6,133.8z M306.2,132.8c2.1,0,3.9-0.7,5.2-2.2s2-3.2,2-5.4
	c0-2.1-0.7-3.9-2-5.4s-3.1-2.2-5.3-2.2c-2.1,0-3.9,0.7-5.2,2.2s-2,3.2-2,5.4s0.7,3.9,2,5.4C302.3,132.1,304.1,132.8,306.2,132.8z"/>
<path class="st1" d="M329.6,137.3v-24.1h1.6l10.5,11.9l10.5-11.9h1.6v24.1H349v-14l-7.2,8l-7.2-8v14H329.6z"/>
<path class="st1" d="M366.2,137.3v-24.1h10.5c5.6,0,8.5,2.3,8.5,7c0,4.8-2.8,7.2-8.4,7.2h-5.7v10L366.2,137.3L366.2,137.3z
	 M371.1,122.8h6.8c1.9,0,2.9-0.9,3-2.7c0-1.6-1-2.4-2.9-2.5h-6.8L371.1,122.8L371.1,122.8z"/>
<path class="st1" d="M397.7,133.8c-2.3-2.3-3.5-5.2-3.5-8.7c0-3.4,1.2-6.2,3.5-8.5s5.2-3.5,8.6-3.5s6.4,1.1,8.9,3.2l-3.2,3.5
	c-1.6-1.3-3.5-1.9-5.7-1.9s-3.9,0.7-5.2,2s-2,3.1-2,5.2c0,2.2,0.7,4,2,5.3s3.1,2,5.2,2c2.2,0,4-0.6,5.6-1.9l3.2,3.5
	c-2.5,2.2-5.4,3.2-8.9,3.2C402.9,137.3,400.1,136.1,397.7,133.8z"/>
<path class="st1" d="M432,113.2v19.6h12.9v4.5h-17.7v-24.1C427.2,113.2,432,113.2,432,113.2z"/>
<path class="st1" d="M460,113.2v14c0,1.8,0.5,3.2,1.6,4s2.4,1.3,4,1.3s3-0.4,4-1.3s1.6-2.2,1.6-4v-14h4.8v15.3c0,2.5-1,4.6-3,6.3
	s-4.5,2.6-7.5,2.6s-5.5-0.9-7.5-2.6s-3-3.8-3-6.3v-15.3H460z"/>
<path class="st1" d="M507.1,124.6c2.1,1.4,3.2,3.3,3.4,5.5c-0.2,4.5-2.6,7-7.3,7.2h-13.6v-24.1h12.8c4.1,0.2,6.2,2.6,6.4,7.1
	C508.8,122.4,508.2,123.9,507.1,124.6z M494.5,122.9h6.8c1.9,0,2.9-1,3-3c0-1.2-1-1.8-2.9-1.9h-6.8v4.9H494.5z M494.5,133.5h7.9
	c2.3,0,3.4-1.2,3.5-3.5c0-1.5-1.2-2.3-3.4-2.4h-7.9v5.9H494.5z"/>
<g>
	<polygon class="st1" points="272.9,149.2 251.9,137.1 251.9,112.9 272.9,100.7 292.6,112.2 290.1,116.5 272.9,106.5 256.9,115.8 
		256.9,134.2 272.9,143.5 290.1,133.5 292.6,137.8 	"/>
</g>
</svg>
