<?xml version="1.0" standalone="no"?>
<!DOCTYPE svg PUBLIC "-//W3C//DTD SVG 20010904//EN"
 "http://www.w3.org/TR/2001/REC-SVG-20010904/DTD/svg10.dtd">
<svg version="1.0" xmlns="http://www.w3.org/2000/svg"
 width="1828.000000pt" height="1828.000000pt" viewBox="0 0 1828.000000 1828.000000"
 preserveAspectRatio="xMidYMid meet">
<metadata>
Created by potrace 1.11, written by Peter Selinger 2001-2013
</metadata>
<g transform="translate(0.000000,1828.000000) scale(0.100000,-0.100000)"
fill="#000000" stroke="none">
<path d="M9410 18002 c0 -6 -34 -308 -75 -673 -42 -364 -74 -663 -73 -665 5
-4 253 -32 257 -28 2 2 28 213 57 470 29 256 55 468 57 470 2 3 82 -133 178
-301 168 -294 175 -305 204 -305 26 1 61 34 269 255 132 140 241 254 242 252
2 -1 -21 -214 -50 -472 -30 -259 -53 -471 -52 -472 3 -3 260 -33 261 -30 2 3
153 1342 151 1344 -6 7 -300 33 -306 27 -4 -5 -111 -122 -238 -261 l-231 -252
-157 277 c-86 152 -165 291 -175 308 -18 30 -21 31 -136 43 -65 7 -133 15
-150 18 -20 3 -33 1 -33 -5z"/>
<path d="M7925 17929 c-293 -43 -496 -223 -567 -502 -17 -68 -20 -103 -16
-221 4 -125 8 -151 35 -229 42 -118 85 -189 168 -272 129 -130 260 -180 470
-178 194 1 335 44 468 144 269 201 326 659 121 969 -52 79 -74 104 -145 161
-136 111 -331 157 -534 128z m186 -239 c173 -32 303 -170 344 -365 18 -87 19
-142 1 -226 -46 -215 -216 -337 -455 -327 -76 3 -107 9 -152 30 -136 62 -221
192 -250 380 -14 88 2 192 41 275 78 169 280 269 471 233z"/>
<path d="M11607 17608 c-16 -46 -432 -1193 -442 -1218 -4 -12 20 -25 112 -58
65 -23 123 -42 128 -42 6 0 39 81 74 180 35 99 67 180 72 180 4 0 97 -32 205
-70 227 -82 311 -98 411 -80 317 55 492 426 336 712 -35 64 -134 156 -203 189
-30 15 -190 75 -355 134 -165 59 -305 110 -311 112 -7 2 -18 -15 -27 -39z
m363 -352 c98 -36 191 -71 207 -80 46 -23 101 -90 113 -138 41 -150 -94 -315
-242 -295 -28 4 -398 130 -416 142 -3 3 152 435 157 435 2 0 83 -29 181 -64z"/>
<path d="M6280 17530 c-236 -31 -464 -186 -559 -380 -92 -188 -95 -407 -7
-610 87 -204 229 -339 426 -406 75 -26 286 -26 380 0 151 41 297 123 383 215
50 53 127 166 127 186 0 9 -131 77 -216 112 -6 2 -23 -15 -37 -39 -38 -66
-138 -155 -210 -189 -99 -46 -206 -65 -286 -50 -137 25 -250 117 -315 254
-133 281 -18 542 284 642 69 23 197 24 259 1 24 -9 46 -16 48 -16 6 0 103 206
103 218 0 14 -126 51 -210 62 -83 10 -91 10 -170 0z"/>
<path d="M13455 16730 c-240 -38 -442 -197 -549 -432 -48 -104 -66 -188 -66
-304 0 -160 40 -274 142 -401 96 -121 290 -243 444 -279 69 -16 294 -18 309
-2 4 4 -5 60 -20 125 l-27 118 -102 1 c-77 1 -115 6 -161 23 -125 45 -233 138
-286 247 -148 300 158 708 481 645 173 -34 339 -170 381 -312 7 -21 17 -39 23
-39 6 1 58 11 116 24 74 16 106 27 108 38 4 22 -43 143 -80 202 -75 123 -171
208 -312 276 -130 62 -283 89 -401 70z"/>
<path d="M3850 16195 c-257 -71 -473 -292 -511 -521 -39 -239 144 -471 382
-482 102 -5 173 11 278 64 154 77 261 195 294 323 l13 53 56 -69 c72 -89 88
-122 88 -180 0 -147 -186 -320 -355 -331 -54 -4 -64 -1 -92 22 l-31 26 -101
-80 c-55 -44 -101 -84 -101 -89 0 -5 23 -29 50 -54 84 -76 196 -101 322 -73
224 50 450 235 536 438 22 54 26 77 27 168 0 93 -3 111 -26 160 -29 62 -361
483 -429 544 -71 64 -138 89 -249 93 -65 2 -114 -2 -151 -12z m188 -254 c99
-51 130 -161 75 -270 -35 -72 -120 -154 -201 -193 -93 -46 -171 -47 -234 -3
-140 99 -109 277 72 410 100 73 212 95 288 56z"/>
<path d="M14444 15428 c-240 -255 -450 -477 -466 -494 l-28 -30 346 -328 346
-329 84 84 c47 46 83 89 82 95 -2 6 -111 113 -243 237 -132 125 -241 231 -243
236 -2 5 166 187 373 405 206 217 375 399 375 404 0 5 -42 48 -94 96 l-94 86
-438 -462z"/>
<path d="M8815 15344 c-22 -2 -98 -9 -170 -15 -71 -6 -211 -22 -310 -35 -1240
-172 -2396 -717 -3330 -1570 l-112 -102 -6 -74 c-3 -40 -40 -620 -82 -1288
-42 -668 -80 -1221 -83 -1229 -4 -7 -360 -125 -791 -262 -431 -136 -786 -251
-789 -254 -3 -3 -3 -7 -1 -9 2 -2 360 -182 795 -400 436 -219 800 -403 809
-410 16 -12 -39 -126 -669 -1378 -377 -751 -686 -1372 -686 -1380 0 -62 292
-680 440 -933 938 -1596 2518 -2691 4323 -2995 1141 -192 2303 -68 3374 360
213 86 604 277 798 390 1423 835 2457 2184 2880 3760 13 47 23 85 22 86 -1 0
-420 184 -932 408 -511 224 -931 409 -933 411 -2 2 45 218 105 479 l108 476
919 2 919 3 -1029 624 -1029 624 -304 1231 c-167 677 -380 1540 -473 1917
l-169 687 -142 80 c-663 376 -1412 633 -2162 741 -311 45 -429 53 -845 56
-223 1 -423 1 -445 -1z m-140 -6171 c42 -115 156 -423 253 -686 l177 -477 803
2 803 3 327 680 328 680 91 3 91 3 6 -38 c11 -72 286 -2266 286 -2285 0 -17
-17 -18 -347 -18 l-348 0 -535 -1663 c-363 -1128 -536 -1651 -537 -1627 -1 19
-21 816 -43 1770 -23 954 -43 1744 -45 1755 -3 15 -442 252 -1861 1005 -1320
700 -1850 986 -1833 989 30 4 2139 108 2235 110 l72 1 77 -207z"/>
<path d="M2411 14892 l-154 -176 69 -64 c38 -35 80 -71 93 -80 26 -18 15 -27
117 91 l42 47 331 -291 332 -291 -23 -29 c-13 -15 -42 -50 -65 -77 l-43 -50
80 -68 c44 -38 84 -70 89 -72 5 -2 104 106 221 240 l213 242 -54 49 c-30 26
-69 60 -88 75 l-33 26 -18 -21 c-9 -12 -36 -43 -58 -69 -37 -41 -44 -45 -59
-33 -10 8 -201 175 -425 372 -224 196 -408 357 -410 356 -2 0 -72 -80 -157
-177z"/>
<path d="M15655 14515 c-366 -260 -450 -334 -503 -446 -40 -84 -51 -136 -52
-238 0 -144 49 -276 150 -402 189 -236 461 -291 720 -147 45 25 685 472 713
498 12 11 -142 222 -156 213 -6 -3 -158 -111 -337 -238 -180 -127 -348 -241
-374 -254 -178 -83 -335 -21 -433 170 -23 46 -28 66 -28 134 0 96 24 154 94
225 25 26 191 149 368 274 178 125 325 231 328 236 8 12 -133 210 -148 209 -7
0 -160 -105 -342 -234z"/>
<path d="M1903 14006 c-200 -49 -384 -238 -438 -451 -20 -78 -19 -226 1 -296
49 -168 146 -274 374 -411 184 -111 268 -140 400 -141 111 0 186 19 276 68
124 69 226 190 281 331 35 92 44 270 18 359 -47 165 -143 274 -345 397 -167
100 -198 116 -287 139 -87 22 -201 24 -280 5z m226 -265 c75 -23 294 -156 351
-213 23 -23 54 -65 68 -93 23 -43 27 -62 27 -135 0 -101 -20 -153 -87 -226
-91 -100 -234 -132 -358 -81 -86 35 -280 156 -328 205 -126 126 -129 315 -7
450 91 101 206 133 334 93z"/>
<path d="M16455 12828 c-341 -143 -622 -262 -624 -264 -7 -6 257 -632 297
-704 52 -94 152 -191 227 -219 82 -31 195 -26 283 14 102 46 185 151 199 250
3 25 9 44 12 42 90 -49 125 -59 194 -55 130 6 242 80 299 196 31 62 33 73 32
167 0 63 -6 119 -16 152 -15 45 -260 640 -277 669 -4 8 -211 -74 -626 -248z
m575 -255 c90 -216 103 -263 90 -313 -18 -68 -77 -120 -135 -120 -37 0 -80 25
-110 64 -22 29 -197 427 -191 433 4 4 260 112 266 113 4 0 39 -80 80 -177z
m-487 -217 c87 -209 102 -265 86 -334 -13 -59 -31 -88 -72 -112 -68 -42 -146
-13 -207 75 -34 49 -194 424 -186 433 9 8 279 121 292 122 5 0 45 -83 87 -184z"/>
<path d="M1103 12425 c-120 -37 -227 -143 -303 -298 -63 -129 -83 -213 -82
-342 0 -152 50 -267 145 -336 34 -25 99 -59 112 -59 1 0 21 54 44 119 l43 120
-45 43 c-67 64 -83 141 -51 249 52 178 168 280 281 250 57 -15 89 -44 109 -97
20 -53 13 -120 -31 -264 -84 -277 -37 -489 128 -584 41 -24 417 -159 424 -153
5 5 351 1001 355 1022 2 15 -17 24 -111 56 -63 21 -116 38 -117 36 -1 -1 -58
-164 -127 -362 -69 -198 -131 -374 -137 -392 l-11 -32 -67 26 c-81 30 -96 43
-118 99 -22 57 -14 138 25 259 79 249 66 412 -42 523 -100 104 -295 158 -424
117z"/>
<path d="M16786 10459 c-105 -66 -185 -180 -217 -309 -22 -87 -16 -326 10
-425 46 -173 134 -300 248 -353 53 -25 68 -27 178 -27 116 0 123 1 187 33 76
37 126 89 164 170 36 77 52 164 64 347 14 216 26 263 80 308 70 59 174 18 221
-88 30 -67 43 -173 31 -245 -13 -74 -49 -154 -86 -194 -16 -17 -25 -35 -21
-44 14 -37 111 -182 122 -182 19 0 120 98 146 143 56 96 71 160 71 317 1 168
-12 231 -74 356 -49 100 -122 172 -208 204 -80 31 -213 25 -293 -12 -149 -68
-210 -205 -228 -512 -13 -219 -40 -294 -115 -330 -91 -43 -186 3 -235 114 -48
110 -52 263 -11 374 22 57 89 139 134 163 18 10 15 18 -48 117 -37 58 -68 106
-69 106 -1 0 -24 -14 -51 -31z"/>
<path d="M1426 9918 c-3 -23 -11 -178 -17 -343 -6 -165 -12 -300 -13 -301 0
-1 -248 10 -549 23 -302 14 -551 22 -555 18 -4 -4 -9 -62 -11 -130 l-3 -123
83 -6 c131 -10 1261 -58 1264 -54 7 7 46 940 40 946 -4 4 -58 9 -120 10 l-114
4 -5 -44z"/>
<path d="M17013 8769 c-225 -38 -398 -209 -448 -444 -19 -92 -19 -255 0 -330
48 -188 193 -328 393 -380 68 -18 868 -119 886 -112 12 5 45 242 35 251 -2 2
-189 27 -415 55 -441 54 -486 64 -566 125 -169 129 -130 450 66 546 93 45 128
44 571 -10 224 -28 413 -50 420 -50 8 0 17 43 27 128 9 70 15 128 15 129 -6 6
-843 103 -882 102 -28 -1 -73 -5 -102 -10z"/>
<path d="M925 8424 c-260 -58 -460 -233 -530 -464 -28 -93 -30 -249 -6 -365
73 -354 344 -559 720 -543 192 9 350 72 479 192 83 77 135 158 169 260 23 72
26 97 26 216 0 106 -5 152 -22 215 -62 235 -213 403 -423 471 -106 34 -302 43
-413 18z m327 -264 c123 -38 209 -120 259 -248 19 -47 23 -77 23 -172 1 -111
0 -118 -32 -182 -75 -153 -247 -248 -448 -248 -233 0 -395 136 -435 366 -14
79 -7 153 23 231 26 70 126 175 203 213 127 62 286 77 407 40z"/>
<path d="M16389 7132 c-5 -15 -26 -69 -45 -120 -20 -52 -32 -97 -28 -102 5 -4
200 -81 434 -170 234 -89 431 -165 438 -169 7 -4 -126 -45 -295 -91 -170 -46
-322 -87 -339 -92 -18 -5 -36 -18 -43 -34 -11 -24 1 -45 175 -320 102 -163
184 -297 181 -300 -2 -2 -199 70 -437 161 -238 91 -437 164 -442 163 -10 -4
-103 -237 -97 -242 10 -7 1247 -476 1257 -476 9 0 55 107 102 240 l12 36 -192
294 c-132 203 -188 296 -178 299 7 3 161 46 341 96 l329 90 54 140 c29 76 52
140 51 141 -1 0 -265 101 -587 224 -322 122 -606 231 -633 241 l-48 19 -10
-28z"/>
<path d="M1548 6590 c-297 -47 -546 -259 -615 -523 -20 -80 -20 -232 1 -319
61 -260 237 -459 466 -530 105 -32 289 -32 404 0 257 73 463 267 520 488 37
143 13 340 -59 493 -92 194 -233 321 -415 375 -67 20 -224 28 -302 16z m294
-287 c128 -61 222 -198 249 -364 32 -200 -128 -403 -375 -474 -88 -26 -222
-18 -299 17 -159 74 -269 266 -254 446 13 163 161 326 352 385 75 24 93 26
182 22 66 -2 95 -9 145 -32z"/>
<path d="M15608 5308 c-87 -119 -100 -137 -94 -145 2 -5 177 -132 388 -283
l384 -275 -355 -5 -355 -5 -14 -25 c-12 -23 -5 -53 91 -355 57 -181 103 -332
101 -334 -1 -2 -177 122 -389 274 -212 152 -387 275 -389 274 -1 -2 -33 -46
-71 -98 -37 -52 -68 -101 -69 -109 -1 -15 1068 -792 1089 -791 6 0 33 32 60
71 28 39 65 93 84 119 l33 47 -107 324 c-60 177 -110 329 -113 336 -3 9 32 12
154 12 88 0 249 3 359 7 l200 6 80 112 c44 62 80 117 80 122 0 8 -1010 742
-1082 786 -7 5 -32 -20 -65 -65z"/>
<path d="M2360 4859 c-217 -160 -461 -340 -543 -400 l-147 -109 71 -97 c40
-54 76 -102 80 -107 4 -5 110 67 235 159 l227 168 18 -24 c10 -13 96 -130 192
-260 l175 -237 -224 -163 c-122 -90 -223 -169 -224 -175 0 -15 138 -199 153
-201 9 -2 1052 758 1083 790 3 3 -29 54 -71 112 l-77 106 -26 -17 c-15 -10
-114 -82 -220 -161 -107 -79 -195 -143 -197 -141 -31 39 -375 512 -375 517 0
3 97 77 215 165 136 100 212 162 208 169 -20 34 -146 197 -152 197 -4 0 -184
-131 -401 -291z"/>
<path d="M14120 3550 c-195 -172 -368 -324 -383 -340 l-29 -27 84 -96 c45 -52
85 -96 88 -96 3 -1 130 110 283 245 153 135 282 244 287 242 14 -5 180 -196
180 -207 0 -5 -116 -112 -257 -236 -142 -125 -262 -232 -267 -240 -7 -9 13
-38 72 -104 l82 -91 258 228 c141 125 264 233 273 239 13 11 30 -4 112 -97
l97 -109 -88 -78 c-48 -43 -174 -154 -280 -247 -105 -93 -192 -172 -192 -176
0 -11 162 -191 170 -188 15 6 758 663 757 670 -1 3 -195 225 -431 493 -236
267 -436 495 -445 507 -16 19 -27 11 -371 -292z"/>
<path d="M3630 3733 c0 -22 3 -81 6 -131 l7 -92 41 0 c165 0 356 -125 436
-286 33 -65 35 -75 35 -169 0 -95 -2 -104 -38 -179 -28 -59 -55 -96 -110 -150
-183 -181 -402 -192 -601 -31 -85 70 -144 170 -170 288 -6 25 -10 27 -59 27
-28 0 -82 -3 -119 -7 -66 -6 -68 -7 -68 -33 0 -46 38 -179 70 -244 91 -185
305 -349 510 -392 306 -65 638 116 784 426 49 103 66 178 66 285 0 196 -59
325 -220 486 -88 88 -120 113 -195 151 -104 54 -177 74 -292 84 l-83 7 0 -40z"/>
<path d="M13220 2839 c-58 -33 -108 -64 -112 -68 -4 -3 40 -90 98 -191 58
-102 106 -189 107 -194 1 -5 -43 -35 -97 -66 l-99 -58 -201 70 c-111 39 -237
83 -282 98 l-81 28 -129 -74 c-71 -40 -130 -80 -132 -88 -2 -10 75 -40 288
-111 l291 -97 -40 -43 c-69 -75 -94 -136 -99 -241 -4 -76 0 -104 18 -158 43
-131 129 -229 246 -283 48 -22 77 -28 156 -31 143 -6 183 9 528 204 162 91
301 172 308 178 10 10 -53 127 -318 592 -182 318 -334 582 -338 586 -4 4 -54
-20 -112 -53z m324 -851 c53 -92 96 -172 96 -177 0 -15 -358 -213 -404 -224
-57 -13 -105 -3 -153 32 -49 35 -93 119 -93 175 0 45 29 113 63 144 33 31 381
230 389 223 4 -3 50 -81 102 -173z"/>
<path d="M5051 2685 c-56 -17 -138 -74 -174 -120 -16 -20 -43 -66 -60 -103
-29 -61 -32 -75 -32 -167 0 -95 2 -103 34 -163 39 -71 126 -164 221 -236 202
-154 250 -206 250 -277 0 -48 -45 -102 -97 -120 -144 -47 -382 111 -433 287
-12 39 -15 42 -58 48 -24 3 -79 6 -120 6 l-75 0 7 -57 c22 -195 139 -343 357
-453 181 -90 353 -105 483 -41 120 59 187 167 194 314 4 85 3 91 -31 160 -42
85 -129 177 -262 277 -118 88 -188 165 -205 224 -11 42 -11 49 11 93 57 112
169 128 335 47 147 -72 241 -192 252 -320 l5 -64 108 0 c59 0 114 -3 123 -6
14 -5 16 4 16 68 0 139 -45 253 -139 351 -105 110 -274 211 -419 248 -88 22
-225 24 -291 4z"/>
<path d="M10786 1864 c-248 -54 -426 -182 -472 -342 -22 -74 -14 -205 15 -284
28 -71 98 -151 164 -184 94 -48 168 -57 418 -49 214 7 229 6 272 -13 107 -47
101 -174 -11 -249 -72 -48 -144 -68 -242 -66 -93 0 -153 18 -206 58 -18 14
-35 25 -39 25 -14 0 -175 -142 -175 -155 0 -20 76 -82 140 -115 84 -42 151
-53 286 -47 142 6 209 22 330 82 114 55 200 141 234 232 33 88 26 207 -18 296
-83 167 -234 221 -552 196 -221 -17 -310 6 -352 91 -60 119 41 239 239 286
145 34 301 -2 378 -88 22 -24 40 -36 48 -31 33 20 177 147 177 156 0 6 -30 41
-67 77 -111 108 -200 140 -383 139 -63 0 -146 -7 -184 -15z"/>
<path d="M7500 1813 c0 -5 -24 -127 -54 -272 -53 -256 -55 -265 -88 -296 -18
-18 -170 -164 -338 -325 -263 -253 -328 -320 -307 -320 2 0 71 -14 153 -31
l149 -30 227 232 c125 128 229 231 231 229 2 -3 52 -138 111 -300 59 -162 109
-296 110 -297 2 -3 294 -63 303 -63 11 0 -15 70 -171 456 l-175 429 55 265
c30 145 53 269 50 275 -2 6 -55 20 -118 33 -126 24 -138 26 -138 15z"/>
<path d="M9490 1451 l0 -199 -237 -4 c-205 -4 -247 -8 -300 -25 -88 -29 -143
-64 -201 -128 -86 -94 -121 -190 -122 -331 0 -223 126 -395 339 -458 60 -18
380 -22 660 -9 l144 6 -7 446 c-3 245 -9 548 -12 674 l-7 227 -128 0 -129 0 0
-199z m12 -676 l3 -235 -210 0 c-118 0 -227 5 -249 11 -56 16 -122 80 -142
141 -48 145 35 283 184 308 26 4 129 8 229 9 l182 1 3 -235z"/>
</g>
</svg>
